<?xml version="1.0" encoding="UTF-8" standalone="no"?>
<svg
   xmlns:svg="http://www.w3.org/2000/svg"
   xmlns="http://www.w3.org/2000/svg"
   version="1.1"
   width="620.08502"
   height="158.24136"
   id="svg18888">
  <defs
     id="defs18890" />
  <g
     transform="translate(-118.9575,-399.09865)"
     id="layer1">
    <path
       d="m 118.9575,557.34001 620.085,0 0,-158.24136 -620.085,0 0,158.24136 z"
       id="path14144"
       style="fill:#0e8102;fill-opacity:1;fill-rule:nonzero;stroke:none" />
    <path
       d="m 427.50742,506.75806 c -128.8596,0 -220.43229,7.94661 -220.43229,7.94661 l 0,3.45506 228.0334,0 2.41854,-11.40167 c -2.91607,-0.0111 -6.4264,0 -10.01965,0 z m 16.92975,0 -2.07303,11.40167 207.9941,0 0,-3.45506 c 0,0 -85.92022,-7.29707 -205.92107,-7.94661 z"
       id="path14148"
       style="fill:#ffea00;fill-opacity:1;fill-rule:nonzero;stroke:none" />
    <path
       d="m 263.39247,439.03905 -12.09268,57.00835 43.53365,0 1.72753,-10.71066 -29.71345,0 2.76404,-13.1292 26.94941,0 2.07303,-11.40167 -26.9494,0 2.41853,-10.71066 30.05895,0 1.72753,-11.05616 -42.49714,0 z m 145.45767,13.8202 c -16.97121,0 -23.82604,9.0246 -26.6039,22.11233 -2.77786,13.07392 3.70382,22.45784 17.27526,22.45784 16.12818,0 23.82604,-9.03842 26.6039,-22.11233 2.79168,-13.08774 -1.61697,-22.45784 -17.27526,-22.45784 z m 97.08695,0 c -16.97122,0 -23.48053,9.03842 -26.25839,22.11233 -2.77787,13.08774 3.35831,22.45784 16.92975,22.45784 13.76492,0 21.5457,-6.55078 25.22187,-16.58425 l -12.78369,0 c -1.74134,4.07696 -4.54684,6.9101 -10.36515,6.9101 -7.61494,0 -8.31977,-6.50931 -6.9101,-13.12919 1.40966,-6.61988 4.82325,-13.1292 12.43818,-13.1292 5.87359,0 7.49055,4.11842 7.25561,8.98313 l 12.43818,0 c 0.7463,-10.48953 -4.32572,-17.62076 -17.96626,-17.62076 z m -44.57017,0.69101 c -3.81437,0 -9.99201,0.91214 -13.12919,4.14606 l 0.69101,-3.10954 -12.43819,0 c -0.4146,2.7364 -12.78369,63.57295 -12.78369,63.57295 l 12.09268,0 5.18258,-24.87638 c 2.39089,3.70382 9.13515,4.49157 12.09268,4.49157 12.1756,0 17.77278,-11.78863 20.0393,-22.45783 2.37707,-11.18055 0.11056,-21.76683 -11.74718,-21.76683 z m 91.90437,0 c -21.72536,-0.59482 -20.73031,13.4747 -20.73031,13.4747 l 11.40167,0 c 0,0 -0.15257,-5.52808 7.94662,-5.52808 0,0 7.31089,-0.33168 6.21909,4.83707 0,0 -0.15257,4.46393 -5.18257,4.14606 0,0 -24.0748,-2.50145 -25.91289,15.20223 0,0 -0.99505,12.43819 13.1292,12.43819 0,0 9.27335,-0.27641 13.4747,-4.83708 0,0 1.17471,2.76405 5.18257,2.76405 l 6.91011,0 2.07303,-8.29213 -1.03596,-0.69101 c 0,0 -0.84248,0.11056 -0.34496,-2.07303 l 4.49157,-21.76682 c 1.94865,-9.49448 -17.62076,-9.67415 -17.62076,-9.67415 z m -243.23562,1.03597 -5.87359,26.9494 c -0.30404,1.40966 -0.80157,3.99404 -0.69101,6.56459 0.20786,6.03943 7.61493,8.98314 11.74717,8.98314 5.79067,0 9.48067,-1.4373 12.43819,-3.80056 l 0,2.76404 12.43819,0 c 0.2764,-2.48763 0.59371,-4.76797 1.03596,-7.25561 l 7.25561,-34.205 -12.43819,0 -5.18258,23.83985 c -1.45112,6.05325 -5.8874,7.25561 -8.98313,7.25561 -5.3346,0 -5.68011,-2.3218 -4.83707,-6.21909 l 5.52808,-24.87637 -12.43819,0 z m 46.64319,0 c -0.48315,3.06808 -8.29212,41.46061 -8.29212,41.46061 l 13.12919,0 4.49157,-21.42132 c 0.55281,-2.70876 0.37259,-5.51426 2.07303,-7.94661 1.35438,-1.94865 4.80943,-2.5982 6.91011,-2.76405 l 5.87358,0 2.41854,-9.32863 c -5.70775,0 -9.42538,-0.12494 -14.16571,3.10954 l 0,-3.10954 -12.43819,0 z m 225.61486,0 c -0.48426,3.06808 -8.29212,41.46061 -8.29212,41.46061 l 13.1292,0 4.14606,-21.42132 c 0.55281,-2.70876 0.71865,-5.51426 2.41853,-7.94661 1.3682,-1.94865 4.80944,-2.5982 6.91011,-2.76405 l 5.52808,0 2.76404,-9.32863 c -5.70774,0 -9.42538,-0.12494 -14.16571,3.10954 l 0,-3.10954 -12.43819,0 z m -175.17111,6.9101 c 7.61494,0 7.97426,6.85482 6.5646,13.4747 -1.40966,6.61988 -3.68999,12.78369 -12.09268,12.78369 -7.61493,0 -8.31976,-6.50932 -6.9101,-13.1292 1.40966,-6.61987 4.82325,-13.12919 12.43818,-13.12919 z m 48.71623,1.72752 c 5.65246,0 7.22797,5.37606 5.87359,11.74718 -1.35438,6.38493 -4.68505,11.74717 -11.05617,11.74717 -6.7028,0 -7.43527,-6.03943 -6.21909,-11.74717 1.21618,-5.72157 4.69887,-11.74718 11.40167,-11.74718 z m 99.15998,14.51122 c 0,0 -1.81045,11.40167 -11.05617,11.40167 0,0 -5.18257,0.34495 -5.18257,-3.80056 0,0 0.12493,-5.30696 7.60111,-6.21909 0,0 5.80449,-0.40023 8.63763,-1.38202 z"
       id="path14156"
       style="fill:#ffffff;fill-opacity:1;fill-rule:nonzero;stroke:none" />
  </g>
</svg>
