<?xml version="1.0" encoding="utf-8"?>
<!-- Generator: Adobe Illustrator 13.0.2, SVG Export Plug-In . SVG Version: 6.00 Build 14948)  -->
<!DOCTYPE svg PUBLIC "-//W3C//DTD SVG 1.0//EN" "http://www.w3.org/TR/2001/REC-SVG-20010904/DTD/svg10.dtd">
<svg version="1.0" id="Layer_1" xmlns="http://www.w3.org/2000/svg" xmlns:xlink="http://www.w3.org/1999/xlink" x="0px" y="0px"
	 width="697px" height="156px" viewBox="0 0 697 156" enable-background="new 0 0 697 156" xml:space="preserve">
<g>
	<path fill="#E31937" d="M43.549,22.098c-9.264,0-17.919,5.674-17.919,18.574c0,11.756,5.435,19.278,17.638,19.278
		c8.326,0,18.228-4.992,18.228-19.014C61.495,28.608,55.309,22.098,43.549,22.098 M42.185,72.944
		c-23.783,0-35.38-11.873-35.38-31.166c0-19.949,17.2-32.581,38.099-32.581c20.273,0,35.409,9.361,35.409,30.924
		C80.313,60.286,63.483,72.944,42.185,72.944z"/>
	<path fill="#E31937" d="M125.333,16.504c-2.543-0.505-4.847-0.83-6.824-0.83c-5.181,0-8.151,2.008-8.151,6.837v4.022h11.968v10.679
		h-11.968v24.387c3.346,0.299,6.94,0.702,9.899,1.156v8.996h-37.13v-8.996c2.971-0.454,6.561-0.857,9.954-1.156V37.212H82.42V26.533
		H93.08v-3.842c0-12.064,7.267-18.158,23.662-18.158c3,0,6.235,0.191,9.629,0.719L125.333,16.504"/>
	<path fill="#E31937" d="M169.172,16.504c-2.633-0.505-4.968-0.83-6.878-0.83c-5.237,0-8.17,2.008-8.17,6.837v4.022h11.847v10.679
		h-11.847v24.387c3.352,0.299,6.92,0.702,9.9,1.156v8.996h-37.064v-8.996c3.021-0.454,6.455-0.857,9.89-1.156V37.212H126.17V26.533
		h10.679v-3.842c0-12.064,7.313-18.158,23.658-18.158c3.015,0,6.263,0.191,9.636,0.719L169.172,16.504"/>
	<path fill="#E31937" d="M188.58,21.829c-5.78,0-10.557-3.646-10.557-8.187c0-4.597,4.777-8.185,10.557-8.185
		c5.854,0,10.607,3.588,10.607,8.185C199.187,18.111,194.435,21.829,188.58,21.829 M170.04,71.751v-8.996
		c2.99-0.454,6.48-0.857,9.833-1.156V37.063c-2.634-0.345-6.543-0.734-9.833-0.842v-8.902c8.216-0.786,17.609-1.128,27.194-0.817
		v35.097c3.156,0.299,6.507,0.702,9.116,1.156v8.996H170.04z"/>
	<path fill="#E31937" d="M233.948,72.65c-18.194,0-28.131-7.437-28.131-22.076c0-13.636,9.005-24.925,30.603-24.925
		c4.24,0,8.92,0.542,12.968,1.467v15.492h-11.134c-0.44-1.838-0.724-3.536-1.054-5.079c-0.842-0.3-1.989-0.317-3.099-0.317
		c-6.011,0-10.309,4.271-10.309,11.699c0,7.729,3.904,11.759,14.021,11.759c3.548,0,7.526-0.633,10.835-1.804l1.176,11.991
		C244.673,72.02,239.979,72.65,233.948,72.65"/>
	<path fill="#E31937" d="M279.967,35.571c-4.983,0-8.605,3.113-9.027,7.772h17.044C288.172,38.307,284.994,35.571,279.967,35.571
		 M304.464,52.552h-33.686c0.162,6.057,4.658,9.471,13.989,9.471c5.589,0,11.373-0.951,16.635-2.841l1.57,10.493
		c-6.358,2.076-13.965,3.135-20.898,3.135c-18.614,0-28.817-7.334-28.817-23.183c0-13.887,9.692-24.188,27.163-24.188
		c17.058,0,24.546,9.187,24.546,21.08C304.965,48.418,304.795,50.361,304.464,52.552z"/>
	<path fill="#E31937" d="M363.153,37.501c-1.936,0-2.925,0-4.155,0.178v23.833c0.678,0.119,1.854,0.15,3.818,0.15
		c7.377,0,13.255-3.776,13.255-12.124C376.071,42.616,374.197,37.501,363.153,37.501 M361.446,72.324
		c-6.408,0-16.788-0.395-19.006-0.395h-7.848v-7.8c2.293-0.455,5.091-0.795,7.848-0.898V36.055c-2.757-0.07-5.555-0.363-7.848-0.685
		v-8.03h7.413c4.94,0,13.299-0.209,22.017-0.209c17.619,0,29.924,5.351,29.924,21.48C393.945,63.777,381.003,72.324,361.446,72.324z
		"/>
	<path fill="#E31937" d="M393.497,71.93v-7.8c2.288-0.455,5.06-0.795,7.754-0.898V36.055c-2.694-0.07-5.466-0.363-7.754-0.685v-8.03
		h44.143v12.195h-12.863c-0.31-1.119-0.402-1.55-0.589-2.478h-6.36v7.884h5.383c0.201-0.864,0.242-1.005,0.588-1.829h10.947v12.102
		h-10.947c-0.346-0.727-0.387-0.948-0.588-1.727h-5.383v8.671h6.404c0.235-1.229,0.331-1.532,0.58-2.72h13.1V71.93H393.497"/>
	<path fill="#E31937" d="M468.527,37.058c-0.222,0-0.938,0-1.71,0.103v12.094c0.728,0.145,1.073,0.145,1.387,0.145
		c4.511,0,8.586-2.229,8.586-6.433C476.79,39.814,474.604,37.058,468.527,37.058 M469.363,58.247c-0.366,0-1.38,0-2.546-0.038v5.022
		c2.708,0.104,5.438,0.443,7.808,0.898v7.8H442.53v-7.8c2.348-0.455,5.072-0.795,7.712-0.898V36.055
		c-2.64-0.07-5.364-0.363-7.712-0.685v-8.03h7.604c2.864,0,11.724-0.297,18.275-0.297c16.144,0,24.868,5.164,24.868,14.908
		C493.277,50.568,485.535,58.247,469.363,58.247z"/>
	<path fill="#E31937" d="M524.882,37.707c-5.736,0-11.635,3.247-11.635,11.691c0,7.624,3.336,12.232,11.304,12.232
		c5.203,0,12.109-2.605,12.109-12.093C536.66,41.703,532.822,37.707,524.882,37.707 M523.727,72.833
		c-18.858,0-28.146-8.419-28.146-22.53c0-14.346,13.694-23.848,30.621-23.848c15.644,0,28.122,6.274,28.122,22.426
		C554.324,63.421,540.873,72.833,523.727,72.833z"/>
	<path fill="#E31937" d="M596.012,42.099c-0.302-1.431-0.663-2.941-0.832-4.555h-4.665v25.688c2.676,0.104,5.423,0.443,7.716,0.898
		v7.8h-32.04v-7.8c2.32-0.455,5.099-0.795,7.801-0.898V37.544h-4.725c-0.125,1.613-0.53,3.124-0.842,4.555H555.74V27.34h52.969
		v14.759H596.012"/>
	<path fill="#E31937" d="M603.815,68.125h0.404c0.519,0,0.907-0.201,0.907-0.646c0-0.333-0.25-0.633-0.907-0.633
		c-0.188,0-0.353,0.011-0.404,0.011V68.125 M603.815,70.107h-0.592v-3.666c0.322-0.037,0.592-0.085,1.046-0.085
		c0.525,0,0.906,0.119,1.15,0.314c0.178,0.138,0.306,0.39,0.306,0.749c0,0.504-0.306,0.757-0.684,0.86v0.071
		c0.289,0,0.493,0.326,0.556,0.873c0.128,0.519,0.213,0.783,0.253,0.883h-0.63c-0.094-0.1-0.135-0.456-0.203-0.918
		c-0.09-0.465-0.367-0.68-0.838-0.68h-0.364V70.107z M604.383,65.448c-1.389,0-2.588,1.223-2.588,2.762
		c0,1.509,1.199,2.788,2.614,2.788c1.493,0,2.628-1.279,2.628-2.759c0-1.568-1.135-2.791-2.628-2.791H604.383z M604.409,64.915
		c1.856,0,3.203,1.489,3.203,3.295c0,1.897-1.347,3.284-3.229,3.284c-1.769,0-3.254-1.387-3.254-3.284
		c0-1.806,1.485-3.295,3.254-3.295H604.409z"/>
	<path d="M415.506,99.908c-0.516,0.485-2.164,0.273-0.983-1.165c0.95-1.177,1.235-1.5,1.648-2.402c0.528-1.067-0.06-1.97-1.91-0.961
		c-9.161,5.072-16.016,16.057-15.512,21.39c0.303,3.838,4.462,4.738,14.134-1.505c0.709-0.425,2.375,0.53,0.558,1.916
		c-2.096,1.651-10.021,5.926-15.841,5.926c-17.284,0.014,4.829-33.683,17.27-33.264c1.322,0.052,2.582,0.846,3.63,1.965
		c0.203,0.156,0.174,0.479,0.257,0.749c0.277,0.27,0.856,0.428,1.067,0.691c0.096,0.319,0.112,0.53,0.09,0.961
		C419.726,94.847,417.224,98.203,415.506,99.908"/>
	<path d="M439.919,104.626c-0.464,0.293-0.925,0.181-1.271,0.06c-1.328-0.341-0.349-2.08-2.773-2.08
		c-5.247,0-11.713,7.854-13.034,12.524c-0.751,2.659,1.094,3.281,10.155-6.517c1.607-1.731,2.654-3.465,4.324-3.583
		c0.979-0.053,1.786,0.462,2.481,1.1c0.866,0.809,0.458,2.425,0.056,3.058c-1.15,1.786-2.826,4.384-3.749,6.4
		c-1.387,3.004-1.904,4.965-2.021,6.63c-0.057,0.758-0.919,0.587-1.61,0.409c-3.575-1.033-3.291-6.98-1.615-9.464
		c-10.849,11.829-15.289,9.055-15.574,7.501c-0.928-5.13,6.282-17.303,15.341-19.785c1.327-0.345,2.71-0.516,3.752-0.516
		c3.116-0.063,6.172,0.691,6.172,2.647C440.552,103.474,440.26,104.395,439.919,104.626"/>
	<path d="M460.795,104.919c-0.225,0.399-0.574,0.751-0.861,0.866c-1.037,0.517-1.499-1.391-3.635,0
		c-2.367,1.498-5.36,3.86-10.266,10.956c-1.505,2.195-2.545,3.87-3.058,4.673c-0.521,0.867-2.828,0.867-3.807-0.058
		c-1.274-1.207-1.157-2.133-0.237-3.924c1.68-3.109,6.813-11.424,9.694-15.867c0.755-1.149,1.851-1.841,3.583-0.746
		c0.57,0.405,1.207,1.102,1.207,1.786c-0.122,1.739-2.419,4.678-5.538,9.468c2.599-3.406,4.955-6.117,6.634-7.729
		c2.478-2.367,5.368-4.044,6.342-2.542C461.492,102.781,461.374,103.766,460.795,104.919"/>
	<path d="M465.729,110.106c2.482,0.23,4.96-1.673,6.868-2.823c1.041-0.694,3.808-3.518,3.169-4.209
		C474.441,101.624,468.443,105.897,465.729,110.106 M464.81,111.952c-5.365,9.291,0.86,8.601,7.148,4.044
		c0.293-0.234,1.043-0.643,1.446-0.29c0.463,0.521,0.171,1.035-0.403,1.493c-1.271,0.93-2.888,2.2-4.907,3.296
		c-1.674,0.919-4.901,2.19-7.616,2.248c-2.537,0.062-4.668-0.809-4.727-3.865c-0.112-4.502,3.291-8.94,5.481-11.307
		c3.634-3.864,8.59-7.155,13.9-7.271c1.966,0,3.461,0.811,3.461,2.944C478.539,107.459,471.325,112.702,464.81,111.952z"/>
	<path d="M292.3,91.937c-1.729,0.171-2.885,0.293-4.612,0.293c-1.208,0-2.941-0.122-3.982,0.979
		c-5.3,5.593-14.879,21.976-16.673,27.116c-0.399,1.09-0.459,1.381-0.459,2.243c0,0.462-0.23,1.153-1.097,0.75
		c-1.558-0.75-2.19-2.423-2.365-2.993c-1.676-6.352,8.542-20.6,12.922-26.542c0.118-0.116,0.807-0.805,1.037-1.149
		c0-0.18-0.862-0.12-1.212-0.12c-1.847,0.057-4.035,0-6.001,0.176c-1.383,0.116-2.764,0-3.691-0.176
		c-0.631-0.172-1.672-1.037-1.611-1.845c0.059-0.98,0.81-1.903,2.478-1.676c5.365,0.695,5.424,0.754,10.671,0.866
		c0.524,0,1.332-0.112,1.914-0.515c0.745-0.516,2.413-1.1,4.088-0.697c0.52,0.118,1.269,0.464,1.562,0.811
		c0.171,0.289,0.578,0.573,1.09,0.573c2.542,0.059,3.753,0.059,6.231-0.054C294.092,89.917,293.11,91.825,292.3,91.937"/>
	<path d="M299.28,104.626c-0.461,0.293-0.919,0.181-1.265,0.06c-1.33-0.341-0.346-2.08-2.771-2.08
		c-5.251,0-11.71,7.854-13.034,12.524c-0.751,2.659,1.09,3.281,10.149-6.517c1.621-1.731,2.654-3.465,4.326-3.583
		c0.984-0.053,1.792,0.462,2.483,1.1c0.862,0.809,0.462,2.425,0.059,3.058c-1.155,1.786-2.827,4.384-3.755,6.4
		c-1.38,3.004-1.901,4.965-2.017,6.63c-0.061,0.758-0.921,0.587-1.617,0.409c-3.577-1.033-3.284-6.98-1.616-9.464
		c-10.84,11.829-15.282,9.055-15.575,7.501c-0.919-5.13,6.292-17.303,15.347-19.785c1.325-0.345,2.715-0.516,3.752-0.516
		c3.114-0.063,6.169,0.691,6.169,2.647C299.916,103.474,299.63,104.395,299.28,104.626"/>
	<path d="M323.564,104.395c-0.403,0.353-0.92,0.412-1.209,0.353c-1.151-0.062-0.63-1.614-3.285-0.402
		c-1.677,0.744-2.593,1.325-4.444,2.887c-0.52,0.451-0.807,1.089-0.691,1.61c0.06,2.307,2.368,7.321,3.632,8.995
		c2.079,2.774,2.541,0.867,3.176,1.846c0.286,0.467,0.056,0.813-0.752,1.274c-1.501,0.866-3.461,1.499-4.786,1.499
		c-4.268,0-6.41-8.304-6.75-11.137c-1.267,2.428-2.308,4.387-2.891,5.54c-1.436,2.886-2.708,6.001-5.475,5.358
		c-2.941-0.687-1.271-4.61,0.168-7.612c2.25-4.727,4.732-8.649,6.697-11.766c3.748-5.996,7.614-11.248,9.575-12.923
		c0.287-0.286,2.074-2.423,4.328-2.595c1.153-0.115,1.961,0,2.88,0.517c0.691,0.405,0.691,0.989-0.174,1.732
		c-3.519,3.174-9.857,12.633-13.838,19.441c5.368-5.306,8.594-6.98,10.557-7.788c1.729-0.69,3.745-0.232,3.919,1.329
		C324.26,103.011,323.975,104.049,323.564,104.395"/>
	<path d="M339.447,99.379c-1.327,0.922-3,0.58-3.979-0.633c-0.87-1.328-0.524-3.231,0.799-4.155
		c1.217-0.866,3.119-0.575,3.982,0.749C341.173,96.673,340.769,98.396,339.447,99.379 M335.347,106.071
		c-1.786,2.596-8.769,13.04-8.591,16.438c0.054,0.808-1.094,0.52-1.269,0.407c-1.968-1.094-2.716-3.746-2.137-6.803
		c0.345-1.791,1.212-3.636,2.194-5.432c1.034-1.9,4.727-7.55,5.652-8.65c0.398-0.467,0.86-1.153,2.19-1.095
		c1.673,0.055,2.595,1.095,2.826,1.557C336.851,103.766,335.981,105.205,335.347,106.071z"/>
	<path d="M356.978,112.479c-1.728,2.705-4.092,6.804-4.035,9.174c0,0.745-0.984,0.629-1.558,0.453
		c-4.56-1.61-2.595-8.133,2.132-15.167c1.441-2.132-0.515-1.333-1.559-0.695c-2.363,1.439-3.518,2.249-7.204,5.83
		c-3.233,3.169-6.41,8.014-7.445,9.521c-0.576,0.862-2.137,0.688-3.345,0.111c-1.615-0.811-1.793-3.061,0.688-6.925
		c1.271-1.962,2.945-4.614,4.621-7.267c1.843-2.888,2.768-4.269,4.039-5.948c0.633-0.856,1.091-1.031,2.132-1.031
		c0.58,0,1.269,0.115,2.078,0.86c1.27,1.211,0.461,3.063-0.464,4.562c-0.86,1.387-2.071,3.109-4.092,5.825
		c3.637-4.099,8.824-9.116,14.358-10.67c1.562-0.462,3.237-0.462,4.039,0.283c2.016,1.796,0.404,3.694,0.059,4.211
		C359.747,108.205,359.174,109.065,356.978,112.479"/>
	<path d="M383.919,104.807c-0.458,0.282-0.979,0.224-1.271,0.053c-0.802-0.233-0.636-1.265-1.614-1.849
		c-0.518-0.287-1.208-0.405-2.658-0.053c-6.571,1.614-11.585,10.205-12.221,12.396c-0.698,2.436,0.919,3.524,8.482-4.783
		c0.398-0.464,1.377-1.788,2.243-2.77c1.331-1.499,2.313-2.309,4.153-1.499c1.614,0.691,1.965,2.651,1.387,4.214
		c-0.925,2.478-1.904,4.838-4.045,8.655c-3.508,6.282-8.3,12.976-13.088,15.516c-2.133,1.149-5.253,2.134-7.561,2.134
		c-1.728,0-3.23-0.405-3.23-1.733c0-1.962,1.615-0.282,2.998-0.282c2.31,0,4.618-1.383,6.756-3.523
		c5.192-5.248,9.514-14.768,11.19-19.158c-11.539,13.448-16.496,10.387-16.787,8.834c-0.98-5.14,6.925-17.483,15.92-19.902
		c1.505-0.405,2.715-0.521,3.802-0.521c3.695,0.057,6.24,1.031,6.24,2.656C384.615,103.647,384.38,104.514,383.919,104.807"/>
	<path d="M487.212,122.281c-9.171,0,0.233-21.865,12.168-21.865c1.041,0,1.963,0.118,2.424,0.755
		c0.116,0.171,0.58,0.974,0.116,0.974c-0.577-0.054-0.921,0-1.556,0.179c-2.889,0.922-4.732,2.536-7.099,5.765
		c-2.369,3.231-4.439,8.883-3.115,9.983c1.616,1.328,8.192-3.17,11.192-13.041c0.111-0.458,0.168-2.19,1.96-2.132
		c0.755,0.06,1.328,0.575,1.328,1.383C504.631,111.148,494.649,122.281,487.212,122.281"/>
	<path d="M534.566,91.996c-0.463,0.287-0.979,0.233-1.271,0.059c-1.034-0.288-0.345-2.367-2.764-2.078
		c-3.525,0.402-7.447,5.191-11.253,11.365c1.844,0,3.923-0.06,4.556-0.06c1.792,0,1.094,1.729-0.404,2.02
		c-0.577,0.118-3.057,0.118-5.417,0.118c-8.945,12.518-16.792,28.265-17.309,29.88c-0.408,1.271-0.171,1.903-0.524,2.078
		c-0.283,0.172-0.747,0-1.149-0.291c-0.866-0.638-1.499-1.441-1.792-2.94c-0.69-3.519,7.847-19.728,13.789-28.785
		c-0.636,0.174-2.247,0.516-2.652-0.808c-0.174-0.576-0.174-1.786,0.517-1.616c1.041,0.233,1.85,0.345,3.407,0.287
		c3.748-5.943,8.191-13.557,16.783-13.438c1.273,0,6.176,0.749,6.176,2.593C535.258,90.843,535.028,91.709,534.566,91.996"/>
	<path d="M551.713,104.572c4.96-0.059,7.848,2.25,7.441,5.943c-0.638,5.938-10.27,12.572-17.364,12.052
		c-5.534-0.404-4.213-5.368-3.232-5.597c0.466-0.111,0.296,0.93,3.465,0.525c1.271-0.176,4.444-1.102,7.262-2.891
		c3.119-1.957,7.734-8.304,1.795-8.708c-1.035-0.06-2.823-0.172-3.865-0.228c-0.865-0.064-1.04-1.325,0.234-1.677
		c1.962-0.52,2.249-0.748,3.919-1.388c4.557-1.668,12.52-10.093,7.842-10.669c-0.92-0.111-2.415,0-3.516,0.868
		c-3.864,3.056-7.847,8.188-12.114,13.958c-4.326,5.827-7.9,11.424-10.041,15.923c-1.094,2.365-0.862,1.503-0.975,2.827
		c-0.063,0.579-0.175,1.032-0.409,1.095c-0.978,0.233-1.956-1.154-2.418-2.02c-2.308-4.501,2.887-12.169,8.074-19.499
		c3.749-5.247,7.73-9.632,10.675-12.636c0.346-0.398,0.459-0.574,0.75-0.861c-4.04,0.463-6.872,2.365-8.479,3.344
		c-1.27,0.754-2.142-0.92-1.328-1.898c1.212-1.391,6.404-3.12,11.364-3.291c0.287,0,1.611-0.694,1.846-0.808
		c0.697-0.292,1.499-0.632,3.23-0.292c0.293,0.06,0.926,0.182,1.505,0.697c0.343,0.344,0.57,0.633,1.611,0.745
		c5.593,0.811,7.438,2.656,6.459,5.484C563.424,101.282,555.291,103.647,551.713,104.572"/>
	<path d="M587.76,105.605c-1.561,2.137-3.23,4.91-5.31,8.254c-3.23,5.19-3.742,7.734-3.63,8.65c0.059,0.749-0.985,0.351-1.445,0
		c-2.25-1.846-2.998-6.167,1.558-13.151c-9.458,9.982-12.981,12.465-15.518,12.805c-4.151,0.58-4.672-2.822-2.886-6
		c2.141-3.803,5.777-9.521,8.254-13.205c1.262-1.903,2.652-2.888,4.498-1.733c2.308,1.381,1.217,3.401,0.174,5.019
		c-2.711,4.216-6.517,9.632-6.117,10.498c0.111,0.288,0.579,0.175,1.445-0.398c0.863-0.581,5.018-3.753,8.824-8.138
		c1.845-2.134,4.211-4.844,4.79-5.54c0.229-0.287,0.919-1.271,1.897-1.494c1.324-0.292,2.309,0.054,2.829,0.341
		c0.867,0.466,1.552,1.212,1.44,2.307C588.448,104.514,588.053,105.205,587.76,105.605"/>
	<path d="M603.512,105.205c-1.68-0.057-1.158-2.131-2.599-2.194c-4.098-0.229-3.808,6.002-5.423,13.272
		c-0.345,1.554-1.271,7.269-7.671,6.227c-0.926-0.171-2.19-0.979-2.823-1.728c-1.213-1.559-0.174-3.229,1.552-1.732
		c3.169,2.827,3.578,0.121,3.578-7.955c0.055-8.541,4.558-10.679,8.597-10.679c1.61,0,6.055,0.979,6.055,3.179
		C604.777,104.457,604.374,105.205,603.512,105.205"/>
	<path d="M617.248,99.379c-1.334,0.922-3,0.58-3.986-0.633c-0.862-1.328-0.518-3.231,0.808-4.155
		c1.212-0.866,3.115-0.575,3.985,0.749C618.971,96.673,618.572,98.396,617.248,99.379 M613.149,106.071
		c-1.787,2.596-8.771,13.04-8.6,16.438c0.062,0.808-1.097,0.52-1.268,0.407c-1.961-1.094-2.711-3.746-2.132-6.803
		c0.343-1.791,1.212-3.636,2.19-5.432c1.037-1.9,4.73-7.55,5.652-8.65c0.402-0.467,0.866-1.153,2.193-1.095
		c1.671,0.055,2.596,1.095,2.829,1.557C614.648,103.766,613.782,105.205,613.149,106.071z"/>
	<path d="M634.779,112.479c-1.733,2.705-4.098,6.804-4.039,9.174c0,0.745-0.975,0.629-1.555,0.453
		c-4.56-1.61-2.603-8.133,2.134-15.167c1.44-2.132-0.521-1.333-1.554-0.695c-2.366,1.439-3.522,2.249-7.218,5.83
		c-3.231,3.169-6.4,8.014-7.438,9.521c-0.58,0.862-2.131,0.688-3.344,0.111c-1.62-0.811-1.791-3.061,0.686-6.925
		c1.271-1.962,2.941-4.614,4.615-7.267c1.844-2.888,2.773-4.269,4.04-5.948c0.637-0.856,1.095-1.031,2.136-1.031
		c0.575,0,1.271,0.115,2.079,0.86c1.261,1.211,0.463,3.063-0.462,4.562c-0.872,1.387-2.083,3.109-4.098,5.825
		c3.63-4.099,8.817-9.116,14.358-10.67c1.562-0.462,3.23-0.462,4.045,0.283c2.016,1.796,0.398,3.694,0.057,4.211
		C637.549,108.205,636.97,109.065,634.779,112.479"/>
	<path d="M647.088,110.106c2.473,0.23,4.954-1.673,6.862-2.823c1.037-0.694,3.808-3.518,3.168-4.209
		C655.791,101.624,649.789,105.897,647.088,110.106 M646.162,111.952c-5.363,9.291,0.863,8.601,7.151,4.044
		c0.287-0.234,1.041-0.643,1.44-0.29c0.462,0.521,0.175,1.035-0.399,1.493c-1.271,0.93-2.886,2.2-4.905,3.296
		c-1.675,0.919-4.902,2.19-7.618,2.248c-2.531,0.062-4.667-0.809-4.727-3.865c-0.116-4.502,3.286-8.94,5.48-11.307
		c3.637-3.864,8.602-7.155,13.901-7.271c1.957,0,3.462,0.811,3.462,2.944C659.889,107.459,652.681,112.702,646.162,111.952z"/>
	<path d="M674.783,105.205c-1.671-0.057-1.155-2.131-2.591-2.194c-4.102-0.229-3.812,6.002-5.426,13.272
		c-0.342,1.554-1.271,7.269-7.673,6.227c-0.925-0.171-2.19-0.979-2.828-1.728c-1.21-1.559-0.17-3.229,1.558-1.732
		c3.175,2.827,3.573,0.121,3.573-7.955c0.064-8.541,4.566-10.679,8.602-10.679c1.614,0,6.055,0.979,6.055,3.179
		C676.053,104.457,675.65,105.205,674.783,105.205"/>
	<path d="M690.058,105.205c-1.679-0.057-1.159-2.131-2.599-2.194c-4.094-0.229-3.808,6.002-5.423,13.272
		c-0.345,1.554-1.271,7.269-7.67,6.227c-0.926-0.171-2.19-0.979-2.829-1.728c-1.212-1.559-0.17-3.229,1.557-1.732
		c3.176,2.827,3.573,0.121,3.573-7.955c0.06-8.541,4.561-10.679,8.602-10.679c1.614,0,6.055,0.979,6.055,3.179
		C691.323,104.457,690.919,105.205,690.058,105.205"/>
	<path fill="#E31937" d="M594.684,131.604c23.905-3.03,59.829-6.194,79.399-0.363c9.727,2.896,9.687,5.934,8.64,6.329
		c-2.487,0.916-3.774,0.968-4.793,0.675c-2.767-0.827-1.531-2.39-5.441-3.552c-14.896-4.522-55.35-2.213-86.164,2.962
		c-11.575,1.947-40.069,8.501-48.909,10.597c-1.169,0.342-2.971,0.248-3.576-0.371c-0.472-0.581-0.825-1.378,1.324-3.102
		c1.343-1.172,2.259-1.423,3.563-1.912C544.513,140.307,576.598,133.905,594.684,131.604"/>
</g>
</svg>
