<?xml version="1.0" encoding="UTF-8"?>
<!DOCTYPE svg PUBLIC "-//W3C//DTD SVG 1.1//EN" "http://www.w3.org/Graphics/SVG/1.1/DTD/svg11.dtd">
<!-- EPS Source: http://www.otto.com/uploads/media/Download_dfce4b.zip -->
<!-- Converted from EPS to SVG using CorelDRAW! -->
<!-- SVG fine tuned using proton32 text editor -->
<svg xmlns="http://www.w3.org/2000/svg" xml:space="preserve" width="100mm" height="37mm" 
style="shape-rendering:geometricPrecision; text-rendering:geometricPrecision; image-rendering:optimizeQuality; fill-rule:evenodd; clip-rule:evenodd"
viewBox="0 0 100 37">
 <defs>
  <style type="text/css">
   <![CDATA[
    .fil0 {fill:#DA251D}
   ]]>
  </style>
 </defs>
 <g id="OTTO">
  <path class="fil0" d="M76.5 2.5 l0.1654 -0.0977c2.4567,-1.4317 5.6297,-2.2499 9.5709,-2.2499 8.4446,0 13.8699,4.0397 13.8699,14.8805 0,11.4546 -3.9412,21.2215 -17.5038,21.2215 -11.2596,0 -14.228,-6.9545 -14.228,-13.4998 0,-4.1717 0.4558,-8.2422 1.5693,-11.5569l-0.073 0 -3.8996 0.002 -2.5603 24.3899 -12.0796 0 2.61 -24.3919 -5.8851 0.002 -2.865 24.3899 -12.131 0 2.866 -24.3919 -4.4015 0c0.1535,1.125 0.256,2.4546 0.256,3.8352 0,11.4546 -3.9922,21.2215 -17.4525,21.2215 -11.3108,0 -14.2281,-6.9545 -14.2281,-13.4998 0,-13.142 4.0943,-22.6022 17.8106,-22.6022 4.5598,0 8.321,1.3608 10.6989,4.0378 1.2403,-2.2634 3.6246,-3.3757 6.1067,-3.3755l19.0208 0.0024 -0.0683 0.5626c0,0 0.6822,-0.5652 2.4223,-0.565l20.5868 0.0024 -0.1536 1.4318 -0.0242 0.2511zm-1.2615 2.4047c0.1195,-0.3068 0.2036,-1.2408 0.2036,-1.2408l0.1609 -1.8241 -19.512 0c-2.2008,0 -3.071,1.125 -3.071,1.125l0.1537 -1.125 -18.4575 0c-2.6788,0 -5.0891,1.5187 -5.8943,4.5146 -2.1287,-3.6694 -5.9245,-5.1794 -10.9113,-5.1794 -12.8974,0 -16.7871,9.0512 -16.7871,21.5796 0,6.0851 2.7127,12.4773 13.2046,12.4773 12.6414,0 16.4288,-9.3581 16.4288,-20.199 0,-1.7897 -0.1535,-3.4261 -0.4606,-4.8579l6.7558 0 -2.8662 24.3917 10.0826 0 2.8148 -24.3917 7.9841 0 -2.6103 24.3917 10.0314 0 2.559 -24.3917 4.8235 -0.0002c0.8079,-0.0001 1.4108,-0.0553 1.8976,-0.4657 -0.2033,0.2552 -0.8541,1.8172 -0.9395,2.0697 -0.945,2.7944 -1.4315,6.5168 -1.4315,10.9758 0,6.0851 2.7641,12.4773 13.2048,12.4773 12.7441,0 16.4799,-9.3581 16.4799,-20.199 0,-10.0738 -5.0667,-13.8579 -12.846,-13.8579 -4.4625,0 -7.7074,1.0558 -10.0019,2.7158 -0.1102,0.0797 -0.732,0.5497 -0.9959,1.0139zm-45.8123 10.1282c0,10.125 -3.4802,18.9202 -15.0981,18.9202 -9.4172,0 -11.8739,-5.7782 -11.8739,-11.1985 0,-11.7614 3.5827,-20.3011 15.4564,-20.3011 7.1142,0 11.5156,3.4771 11.5156,12.5794zm68.3256 0c0,10.125 -3.4292,18.9202 -15.1494,18.9202 -9.3659,0 -11.8739,-5.7782 -11.8739,-11.1985 0,-11.7614 3.6849,-20.3011 15.5078,-20.3011 6.9604,0 11.5155,3.4771 11.5155,12.5794zm-7.3187 -0.5624c0,-5.3182 -3.122,-6.4432 -5.0671,-6.4432 -4.6061,0 -7.421,3.7841 -7.421,13.4488 0,4.5 1.7401,6.6477 5.0667,6.6477 5.5786,0 7.4214,-4.142 7.4214,-13.6533zm-68.2745 0c0,-5.3182 -2.7637,-6.4432 -4.862,-6.4432 -3.9921,0 -7.5748,3.1194 -7.5748,13.4488 0,4.8579 1.7401,6.6477 5.0669,6.6477 5.5275,0 7.3699,-4.7045 7.3699,-13.6533zm-1.3307 0c0,8.0795 -1.4841,12.3238 -6.0392,12.3238 -2.4567,0 -3.7361,-1.4318 -3.7361,-5.3182 0,-9.3067 2.9683,-12.1193 6.244,-12.1193 1.5354,0 3.5313,0.8694 3.5313,5.1137zm68.2743 0c0,8.5909 -1.5354,12.3238 -6.0905,12.3238 -2.4564,0 -3.7363,-1.7386 -3.7363,-5.3182 0,-8.6932 2.3034,-12.1193 6.0906,-12.1193 1.4332,0 3.7362,0.8694 3.7362,5.1137zm-0.9212 0c0,-3.4773 -1.7401,-4.1932 -2.815,-4.1932 -3.2243,0 -5.169,3.1704 -5.169,11.1988 0,2.9659 0.9722,4.3977 2.8147,4.3977 3.8898,0 5.1693,-3.4772 5.1693,-11.4033zm-68.2743 0c0,-3.4773 -1.4843,-4.1932 -2.6101,-4.1932 -2.815,0 -5.3229,2.608 -5.3229,11.1988 0,3.2215 0.9725,4.3977 2.815,4.3977 3.8385,0 5.118,-3.9374 5.118,-11.4033zm25.9483 -5.5738l-2.7637 24.3919 -7.421 0 2.8659 -24.3919 -8.7011 0c0,0 0.0191,-0.5114 0.0703,-1.0229 0.3581,-3.1703 2.5075,-4.7538 4.8108,-4.754l17.3826 -0.0016 -0.4696 3.6306c0.6143,-2.4034 2.5694,-3.6288 4.6168,-3.629l17.9242 -0.0016 -0.0514 0.8183c-0.1536,2.1476 -0.6652,4.9571 -4.2478,4.9583l-6.0006 0.0019 -2.6104 24.3919 -7.3188 0 2.6104 -24.3919 -10.6966 0z"/>
 </g>
</svg>