<?xml version="1.0" encoding="iso-8859-1"?>
<!DOCTYPE svg PUBLIC "-//W3C//DTD SVG 1.1 Basic//EN" "http://www.w3.org/Graphics/SVG/1.1/DTD/svg11-basic.dtd">
<svg version="1.1" baseProfile="basic" id="Layer_1"
   xmlns="http://www.w3.org/2000/svg" xmlns:xlink="http://www.w3.org/1999/xlink" x="0px" y="0px" width="1000px" height="1000px"
   viewBox="0 0 1000 1000" xml:space="preserve">
   <path transform="matrix(1.0,0,0,1.0,0,53)" style="fill:#777" d="M 316 229 C 309 243 304 258 304 274 C 304 328 348 371 402 371 C 456 371 500 328 500 274 C 500 223 460 182 411 177 C 411 177 379 112 407 96 L 532 22 C 569 0 618 11 641 48 L 732 201 C 740 134 796 81 865 81 C 939 81 1000 141 1000 216 C 1000 290 939 350 865 350 C 848 350 831 346 815 340 L 918 512 C 941 549 929 598 892 621 L 745 707 C 721 721 701 705 687 688 L 670 659 C 678 645 682 629 682 612 C 682 558 639 514 585 514 C 531 514 487 558 487 612 C 487 662 525 702 573 708 L 576 714 C 586 731 612 780 586 800 L 586 800 L 467 869 C 430 892 381 880 358 843 L 266 688 C 256 752 201 801 134 801 C 60 801 0 741 0 667 C 0 593 60 533 134 533 C 149 533 164 536 178 541 L 81 379 C 58 342 70 293 107 271 L 236 195 C 269 176 295 194 316 229 z"/>
</svg>