<?xml version="1.0" encoding="iso-8859-1"?>
<!DOCTYPE svg PUBLIC "-//W3C//DTD SVG 1.1 Basic//EN" "http://www.w3.org/Graphics/SVG/1.1/DTD/svg11-basic.dtd">
<svg version="1.1" baseProfile="basic" id="Layer_1"
   xmlns="http://www.w3.org/2000/svg" xmlns:xlink="http://www.w3.org/1999/xlink" x="0px" y="0px" width="1000px" height="1000px"
   viewBox="0 0 1000 1000" xml:space="preserve">
   <path transform="matrix(1.0,0,0,1.0,0,16)" style="fill:#777" d="M 734 117 L 220 117 C 179 117 145 150 145 191 L 145 774 C 145 815 179 849 220 849 L 779 849 C 820 849 854 815 854 774 L 854 236 L 734 117 z M 241 295 C 210 295 185 270 185 239 C 185 209 210 184 241 184 C 271 184 296 209 296 239 C 296 270 271 295 241 295 z M 296 73 L 296 33 C 296 15 311 0 330 0 L 371 0 C 389 0 405 15 405 33 L 405 73 L 296 73 z M 444 73 L 444 33 C 444 15 459 0 477 0 L 518 0 C 537 0 552 15 552 33 L 552 73 L 444 73 z M 592 73 L 592 33 C 592 15 607 0 626 0 L 667 0 C 685 0 701 15 701 33 L 701 73 L 592 73 z M 926 296 L 966 296 C 984 296 1000 311 1000 329 L 1000 370 C 1000 389 984 404 966 404 L 926 404 L 926 296 z M 926 443 L 966 443 C 984 443 1000 458 1000 477 L 1000 518 C 1000 536 984 551 966 551 L 926 551 L 926 443 z M 926 592 L 966 592 C 984 592 1000 607 1000 625 L 1000 666 C 1000 685 984 700 966 700 L 926 700 L 926 592 z M 73 700 L 33 700 C 15 700 0 685 0 666 L 0 625 C 0 607 15 592 33 592 L 73 592 L 73 700 z M 73 553 L 33 553 C 15 553 0 537 0 519 L 0 478 C 0 459 15 444 33 444 L 73 444 L 73 553 z M 73 404 L 33 404 C 15 404 0 389 0 370 L 0 329 C 0 311 15 296 33 296 L 73 296 L 73 404 z M 700 893 L 700 933 C 700 951 685 966 666 966 L 625 966 C 607 966 592 951 592 933 L 592 893 L 700 893 z M 553 893 L 553 933 C 553 951 537 966 519 966 L 478 966 C 459 966 444 951 444 933 L 444 893 L 553 893 z M 404 893 L 404 933 C 404 951 389 966 370 966 L 329 966 C 311 966 296 951 296 933 L 296 893 L 404 893 z"/>
</svg>