<?xml version="1.0" encoding="iso-8859-1"?>
<!DOCTYPE svg PUBLIC "-//W3C//DTD SVG 1.1 Basic//EN" "http://www.w3.org/Graphics/SVG/1.1/DTD/svg11-basic.dtd">
<svg version="1.1" baseProfile="basic" id="Layer_1"
   xmlns="http://www.w3.org/2000/svg" xmlns:xlink="http://www.w3.org/1999/xlink" x="0px" y="0px" width="1000px" height="1000px"
   viewBox="0 0 1000 1000" xml:space="preserve">
   <path transform="matrix(1.0,0,0,1.0,0,202)" style="fill:#777" d="M 966 0 L 33 0 C 15 0 0 15 0 33 L 0 561 C 0 580 15 595 33 595 L 966 595 C 984 595 1000 580 1000 561 L 1000 33 C 1000 15 984 0 966 0 z M 245 523 C 245 541 229 557 211 557 L 92 557 C 73 557 58 541 58 523 L 58 491 C 58 472 73 457 92 457 L 211 457 C 229 457 245 472 245 491 L 245 523 z M 245 387 C 245 405 229 421 211 421 L 92 421 C 73 421 58 405 58 387 L 58 355 C 58 336 73 321 92 321 L 211 321 C 229 321 245 336 245 355 L 245 387 z M 245 243 C 245 262 229 277 211 277 L 92 277 C 73 277 58 262 58 243 L 58 211 C 58 192 73 177 92 177 L 211 177 C 229 177 245 192 245 211 L 245 243 z M 245 102 C 245 121 229 136 211 136 L 92 136 C 73 136 58 121 58 102 L 58 70 C 58 51 73 36 92 36 L 211 36 C 229 36 245 51 245 70 L 245 102 z M 474 523 C 474 541 459 557 440 557 L 321 557 C 302 557 287 541 287 523 L 287 491 C 287 472 302 457 321 457 L 440 457 C 459 457 474 472 474 491 L 474 523 z M 474 387 C 474 405 459 421 440 421 L 321 421 C 302 421 287 405 287 387 L 287 355 C 287 336 302 321 321 321 L 440 321 C 459 321 474 336 474 355 L 474 387 z M 474 243 C 474 262 459 277 440 277 L 321 277 C 302 277 287 262 287 243 L 287 211 C 287 192 302 177 321 177 L 440 177 C 459 177 474 192 474 211 L 474 243 z M 474 102 C 474 121 459 136 440 136 L 321 136 C 302 136 287 121 287 102 L 287 70 C 287 51 302 36 321 36 L 440 36 C 459 36 474 51 474 70 L 474 102 z M 714 523 C 714 541 699 557 680 557 L 561 557 C 542 557 527 541 527 523 L 527 491 C 527 472 542 457 561 457 L 680 457 C 699 457 714 472 714 491 L 714 523 z M 714 387 C 714 405 699 421 680 421 L 561 421 C 542 421 527 405 527 387 L 527 355 C 527 336 542 321 561 321 L 680 321 C 699 321 714 336 714 355 L 714 387 z M 714 243 C 714 262 699 277 680 277 L 561 277 C 542 277 527 262 527 243 L 527 211 C 527 192 542 177 561 177 L 680 177 C 699 177 714 192 714 211 L 714 243 z M 714 102 C 714 121 699 136 680 136 L 561 136 C 542 136 527 121 527 102 L 527 70 C 527 51 542 36 561 36 L 680 36 C 699 36 714 51 714 70 L 714 102 z M 941 523 C 941 541 926 557 907 557 L 788 557 C 770 557 754 541 754 523 L 754 491 C 754 472 770 457 788 457 L 907 457 C 926 457 941 472 941 491 L 941 523 z M 941 387 C 941 405 926 421 907 421 L 788 421 C 770 421 754 405 754 387 L 754 355 C 754 336 770 321 788 321 L 907 321 C 926 321 941 336 941 355 L 941 387 z M 941 243 C 941 262 926 277 907 277 L 788 277 C 770 277 754 262 754 243 L 754 211 C 754 192 770 177 788 177 L 907 177 C 926 177 941 192 941 211 L 941 243 z M 941 102 C 941 121 926 136 907 136 L 788 136 C 770 136 754 121 754 102 L 754 70 C 754 51 770 36 788 36 L 907 36 C 926 36 941 51 941 70 L 941 102 z"/>
</svg>