<?xml version="1.0" encoding="iso-8859-1"?>
<!DOCTYPE svg PUBLIC "-//W3C//DTD SVG 1.1 Basic//EN" "http://www.w3.org/Graphics/SVG/1.1/DTD/svg11-basic.dtd">
<svg version="1.1" baseProfile="basic" id="Layer_1"
   xmlns="http://www.w3.org/2000/svg" xmlns:xlink="http://www.w3.org/1999/xlink" x="0px" y="0px" width="1000px" height="1000px"
   viewBox="0 0 1000 1000" xml:space="preserve">
   <path transform="matrix(1.0,0,0,1.0,0,84)" style="fill:#777" d="M 1000 234 L 820 234 L 727 0 L 0 288 L 214 830 L 246 817 L 1000 817 L 1000 234 z M 748 234 L 318 234 L 690 87 L 748 234 z M 87 325 L 217 274 L 217 654 L 87 325 z M 932 750 L 284 750 L 284 301 L 932 301 L 932 750 z M 867 687 L 349 687 L 476 558 L 547 607 L 695 409 L 755 485 L 779 474 L 867 687 z M 349 427 C 349 392 378 364 413 364 C 448 364 476 392 476 427 C 476 463 448 491 413 491 C 378 491 349 463 349 427 z"/>
</svg>