<?xml version="1.0" encoding="iso-8859-1"?>
<!DOCTYPE svg PUBLIC "-//W3C//DTD SVG 1.1 Basic//EN" "http://www.w3.org/Graphics/SVG/1.1/DTD/svg11-basic.dtd">
<svg version="1.1" baseProfile="basic" id="Layer_1"
   xmlns="http://www.w3.org/2000/svg" xmlns:xlink="http://www.w3.org/1999/xlink" x="0px" y="0px" width="1000px" height="1000px"
   viewBox="0 0 1000 1000" xml:space="preserve">
   <path transform="matrix(2.9673590504451037,0,0,2.9673590504451037,0,0)" style="fill:#777" d="M 288 144 L 144 144 L 144 288 L 288 288 L 288 144 M 312 24 L 312 312 L 24 312 L 24 24 L 312 24 M 336 0 L 0 0 L 0 336 L 336 336 L 336 0 L 336 0 z M 264 72 L 264 96 L 72 96 L 72 72 L 264 72 M 288 48 L 48 48 L 48 120 L 288 120 L 288 48 L 288 48 z M 96 168 L 96 264 L 72 264 L 72 168 L 96 168 M 120 144 L 48 144 L 48 288 L 120 288 L 120 144 L 120 144 z"/>
</svg>