<?xml version="1.0" encoding="utf-8"?>
<!-- Generator: Adobe Illustrator 16.0.0, SVG Export Plug-In . SVG Version: 6.00 Build 0)  -->
<!DOCTYPE svg PUBLIC "-//W3C//DTD SVG 1.1//EN" "http://www.w3.org/Graphics/SVG/1.1/DTD/svg11.dtd">
<svg version="1.1" id="Ebene_1" xmlns="http://www.w3.org/2000/svg" xmlns:xlink="http://www.w3.org/1999/xlink" x="0px" y="0px"
	 width="307.28px" height="85.04px" viewBox="0 0 307.28 85.04" enable-background="new 0 0 307.28 85.04" xml:space="preserve">
<g>
	<path d="M238.909,17.285h-80.452C158.562,7.725,168.218,0,180.117,0h105.385c11.962,0,21.66,7.809,21.66,17.443
		c0,9.634-9.697,17.444-21.66,17.444H260.57C260.57,25.094,250.873,17.285,238.909,17.285L238.909,17.285z"/>
	<path d="M68.369,67.755h80.454c-0.106,9.561-9.763,17.285-21.659,17.285H21.778c-11.963,0.001-21.66-7.81-21.66-17.444
		s9.697-17.444,21.66-17.444h24.931C46.708,59.945,56.406,67.755,68.369,67.755L68.369,67.755z"/>
	<path d="M88.742,33.615l-6.588,19.382c-0.683,2.009-1.407,3.582-2.175,4.721c-0.767,1.138-1.731,2.063-2.892,2.78
		c-1.627,1.012-3.815,1.56-6.565,1.645H60.09l1.499-4.411h9.35c1.689-0.026,2.87-0.342,3.54-0.941
		c0.339-0.293,0.622-0.656,0.846-1.088c0.225-0.435,0.518-1.181,0.878-2.241l6.746-19.846H88.742L88.742,33.615z M83.742,31.281
		l1.852-5.444h5.792l-1.851,5.444H83.742L83.742,31.281z"/>
	<path d="M111.165,49.565l-1.735,5.099H99.383c-1.911,0-3.338-0.099-4.284-0.295c-3.292-0.691-5.127-2.669-5.506-5.937
		c-0.242-2.183,0.187-4.885,1.281-8.109c1.317-3.872,3.14-7.025,5.472-9.46c1.675-1.746,3.559-3.021,5.651-3.824
		c2.093-0.801,4.586-1.203,7.48-1.203h9.751l-1.733,5.1h-9.056c-2.732,0-4.986,0.734-6.76,2.205
		c-1.464,1.214-2.739,3.419-3.825,6.612c-1.45,4.266-1.584,7.071-0.4,8.414c0.834,0.931,2.463,1.399,4.886,1.399H111.165
		L111.165,49.565z"/>
	<path d="M132.617,41.872c0.502-1.479,0.541-2.475,0.119-2.99c-0.422-0.513-1.503-0.772-3.245-0.772h-9.775l1.527-4.495h9.776
		c1.742,0,2.937,0.033,3.582,0.097c0.646,0.064,1.271,0.205,1.872,0.417c2.787,1.209,3.328,4.1,1.621,8.67l-4.034,11.865h-12.197
		c-2.176,0-3.66-0.064-4.453-0.189c-0.792-0.127-1.432-0.401-1.92-0.824c-1.321-1.152-1.586-2.892-0.797-5.215
		c0.483-1.42,1.253-2.685,2.31-3.789s2.205-1.853,3.449-2.248c1.104-0.352,2.799-0.528,5.087-0.528L132.617,41.872L132.617,41.872z
		 M131.09,46.367h-6.679h-0.962c-0.654,0-1.232,0.174-1.733,0.523c-0.503,0.35-0.855,0.82-1.054,1.408
		c-0.233,0.687-0.165,1.17,0.207,1.452c0.371,0.277,1.12,0.419,2.248,0.419h6.679L131.09,46.367L131.09,46.367z"/>
	<path d="M148.252,33.615l2.645-7.779h5.793l-2.645,7.779h5.36l-1.527,4.495h-5.36l-2.6,7.649c-0.606,1.786-0.828,2.912-0.661,3.376
		c0.258,0.689,1.005,1.033,2.244,1.033h2.279l-1.527,4.496h-4.201c-2.508,0-4.088-0.606-4.74-1.815
		c-0.651-1.212-0.494-3.237,0.471-6.083l2.942-8.656h-3.674l1.527-4.494H148.252L148.252,33.615z"/>
	<path d="M175.094,41.872c0.502-1.479,0.542-2.475,0.118-2.99c-0.42-0.513-1.503-0.772-3.245-0.772h-9.773l1.528-4.495h9.773
		c1.742,0,2.939,0.033,3.583,0.097c0.646,0.064,1.271,0.205,1.872,0.417c2.789,1.209,3.328,4.1,1.622,8.67l-4.034,11.865h-12.199
		c-2.176,0-3.658-0.064-4.451-0.189c-0.793-0.127-1.434-0.401-1.921-0.824c-1.321-1.152-1.586-2.892-0.797-5.215
		c0.483-1.42,1.253-2.685,2.311-3.789c1.055-1.104,2.204-1.853,3.446-2.248c1.104-0.352,2.799-0.528,5.088-0.528L175.094,41.872
		L175.094,41.872z M173.565,46.367h-6.678h-0.961c-0.656,0-1.233,0.174-1.734,0.523c-0.504,0.35-0.853,0.82-1.053,1.408
		c-0.233,0.687-0.164,1.17,0.206,1.452c0.369,0.277,1.123,0.419,2.248,0.419h6.68L173.565,46.367L173.565,46.367z"/>
	<polygon points="187.855,54.665 182.062,54.665 191.86,25.836 197.653,25.836 	"/>
	<path d="M210.596,33.313c3.877,0,6.361,1.124,7.452,3.374c1.004,2.053,0.979,4.625-0.072,7.716
		c-1.118,3.291-3.079,5.911-5.881,7.866c-2.566,1.798-5.553,2.698-8.958,2.698c-3.517,0-5.932-1.005-7.247-3.017
		c-1.2-1.84-1.216-4.49-0.04-7.948c1.003-2.951,2.717-5.405,5.142-7.358C203.69,34.468,206.892,33.356,210.596,33.313
		L210.596,33.313z M209.111,37.765c-3.45,0-5.906,2.149-7.369,6.449c-0.594,1.751-0.767,3.08-0.518,3.991
		c0.413,1.54,1.61,2.311,3.596,2.311c3.408,0,5.838-2.136,7.291-6.407C213.532,39.92,212.535,37.807,209.111,37.765L209.111,37.765z
		"/>
	<path d="M246.265,33.615l-7.104,20.901c-0.4,1.18-0.891,2.23-1.472,3.15c-0.58,0.921-1.249,1.702-2.003,2.348
		c-0.919,0.8-1.904,1.354-2.951,1.664c-1.051,0.31-2.469,0.464-4.259,0.464h-11.532l1.528-4.494h10.754
		c1.265,0,2.159-0.195,2.685-0.58c0.524-0.384,0.994-1.185,1.408-2.404h-5.315c-1.7,0-3.044-0.179-4.023-0.537
		c-0.98-0.36-1.779-0.962-2.393-1.806c-1.439-1.971-1.565-4.701-0.379-8.192c1.354-3.981,3.621-6.889,6.801-8.718
		c1.149-0.648,2.283-1.109,3.403-1.382c1.12-0.276,2.467-0.413,4.042-0.413H246.265L246.265,33.615z M238.944,38.11h-4.787
		c-3.32,0-5.666,2.015-7.034,6.041c-0.672,1.972-0.73,3.468-0.182,4.486c0.552,1.023,1.687,1.532,3.412,1.532h4.492L238.944,38.11
		L238.944,38.11z"/>
</g>
</svg>
