<?xml version="1.0" encoding="iso-8859-1"?>
<!DOCTYPE svg PUBLIC "-//W3C//DTD SVG 1.1 Basic//EN" "http://www.w3.org/Graphics/SVG/1.1/DTD/svg11-basic.dtd">
<svg version="1.1" baseProfile="basic" id="Layer_1"
   xmlns="http://www.w3.org/2000/svg" xmlns:xlink="http://www.w3.org/1999/xlink" x="0px" y="0px" width="1000px" height="1000px"
   viewBox="0 0 1000 1000" xml:space="preserve">
   <path transform="matrix(1.0,0,0,1.0,42,0)" style="fill:#777" d="M 915 75 L 915 75 L 915 0 L 915 0 L 915 0 L 864 0 L 864 0 L 51 0 L 0 0 L 0 0 L 0 0 L 0 75 L 0 76 L 0 76 L 0 301 C 0 301 0 302 0 302 C 0 302 0 303 0 303 C 0 305 0 307 2 309 C 5 316 14 321 25 321 C 39 321 51 312 51 301 L 51 299 C 51 299 51 297 51 284 C 51 284 54 203 113 144 C 129 129 149 119 174 114 C 198 108 209 105 247 105 C 292 105 324 110 343 120 C 362 130 372 153 372 191 L 372 792 C 372 825 370 852 366 871 C 362 890 355 904 344 915 C 334 925 319 932 300 937 C 281 942 277 946 245 949 C 244 949 243 949 242 950 C 241 950 240 950 239 951 C 237 952 236 953 234 955 C 234 955 233 956 232 957 C 232 958 232 958 231 958 C 231 959 231 960 230 960 C 229 962 229 964 228 966 C 228 967 228 968 228 969 C 227 971 227 972 227 974 C 227 974 227 974 227 975 C 227 975 227 975 227 976 C 227 982 228 987 231 992 C 234 997 239 1000 245 1000 C 246 1000 247 999 248 999 C 248 999 248 1000 248 1000 L 666 1000 C 666 1000 667 999 667 999 C 673 999 678 997 681 992 C 685 987 686 982 686 976 C 686 975 687 975 687 974 C 687 960 677 948 666 948 L 664 948 C 634 945 628 942 609 937 C 589 932 574 925 564 915 C 553 904 546 890 543 871 C 540 852 539 825 539 792 L 539 191 C 539 153 549 130 569 120 C 590 110 603 105 649 105 C 683 105 712 108 736 114 C 761 119 781 129 798 144 C 815 159 829 180 839 206 C 849 232 858 247 864 288 L 864 302 C 864 313 875 322 890 322 C 901 322 910 316 914 308 C 914 306 915 305 915 303 C 915 303 915 302 915 302 C 915 302 915 302 915 302 L 915 75 z"/>
</svg>