<?xml version="1.0" encoding="utf-8"?>
<!-- Generator: Adobe Illustrator 16.2.1, SVG Export Plug-In . SVG Version: 6.00 Build 0)  -->
<!DOCTYPE svg PUBLIC "-//W3C//DTD SVG 1.1//EN" "http://www.w3.org/Graphics/SVG/1.1/DTD/svg11.dtd">
<svg version="1.1" id="Ebene_1" xmlns="http://www.w3.org/2000/svg" xmlns:xlink="http://www.w3.org/1999/xlink" x="0px" y="0px"
	 width="56.69px" height="56.69px" viewBox="0 0 56.69 56.69" enable-background="new 0 0 56.69 56.69" xml:space="preserve">
<g>
	<defs>
		<rect id="SVGID_1_" y="3.345" width="56.42" height="50"/>
	</defs>
	<clipPath id="SVGID_2_">
		<use xlink:href="#SVGID_1_"  overflow="visible"/>
	</clipPath>
	<path clip-path="url(#SVGID_2_)" d="M31.457,12.085v-0.873c0-0.89-0.89-0.89-0.89-0.89h-4.713c0,0-0.89,0-0.89,0.89v0.873
		c0,0,0,0.89,0.89,0.89h4.713C31.457,12.975,31.457,12.085,31.457,12.085 M47.433,35.664c0,2.125-1.722,3.846-3.846,3.846
		c-2.125,0-3.847-1.721-3.847-3.846s1.722-3.848,3.847-3.848C45.711,31.816,47.433,33.539,47.433,35.664 M40.74,23.957
		c-1.811,0-23.249,0-25.06,0c-2.624,0-5.011-0.9-4.581-3.262c0.534-2.937,2.224-12.367,3.336-12.367h27.55
		c1.111,0,2.803,9.431,3.336,12.367C45.751,23.057,43.364,23.957,40.74,23.957 M12.834,31.816c2.124,0,3.846,1.723,3.846,3.848
		s-1.722,3.846-3.846,3.846c-2.125,0-3.847-1.721-3.847-3.846S10.709,31.816,12.834,31.816 M21.621,33.662
		c0-0.889,0.89-0.889,0.89-0.889H33.91c0,0,0.89,0,0.89,0.889v4.002c0,0,0,0.891-0.89,0.891H22.511c-0.89,0-0.89-0.891-0.89-0.891
		V33.662z M56.42,21.673c0-2.069-0.11-2.291-1.823-2.291h-5.982c-0.623-2.581-2.048-8.652-2.937-11.588
		c-0.89-2.936-2.669-4.449-6.673-4.449H17.416c-4.003,0-5.783,1.513-6.672,4.449c-0.89,2.936-2.313,9.007-2.936,11.588H1.823
		C0.112,19.382,0,19.604,0,21.673c0,2.046,0.245,2.284,1.823,2.284h1.803c-1.38,2.92-1.803,10.639-1.803,12.797v14.012
		c0,2.312,0.29,2.58,4.561,2.58c4.447,0,4.715-0.689,4.715-2.58v-5.783c1.557,0,32.667,0,34.222,0v5.783
		c0,1.891,0.268,2.58,4.716,2.58c4.271,0,4.56-0.268,4.56-2.58V36.754c0-2.158-0.423-9.876-1.802-12.797h1.802
		C56.176,23.957,56.42,23.719,56.42,21.673"/>
</g>
</svg>
