<?xml version="1.0" encoding="UTF-8" standalone="no"?>
<!-- Created with Inkscape (http://www.inkscape.org/) -->
<svg
   xmlns:svg="http://www.w3.org/2000/svg"
   xmlns="http://www.w3.org/2000/svg"
   version="1.0"
   width="726.37793"
   height="496.09842"
   id="svg1927">
  <defs
     id="defs1929" />
  <g
     transform="translate(-217.2709,301.9224)"
     id="layer1">
    <g
       transform="translate(8.85826,8.860811)"
       id="g3636">
      <path
         d="M 560.45055,-145.40926 L 532.83839,-123.33471 L 565.83645,-142.22327 L 560.45055,-145.40926"
         style="fill:#211d1e;fill-rule:nonzero;stroke:none;stroke-width:0.30000001;stroke-linecap:butt;stroke-linejoin:miter;stroke-miterlimit:10;stroke-dasharray:none"
         id="path3261" />
      <path
         d="M 568.11216,-146.09197 L 562.42285,-149.50557 L 569.55345,-275.80843 L 568.11216,-146.09197"
         style="fill:#211d1e;fill-rule:nonzero;stroke:none;stroke-width:0.30000001;stroke-linecap:butt;stroke-linejoin:miter;stroke-miterlimit:10;stroke-dasharray:none"
         id="path3263" />
      <path
         d="M 574.33247,-142.2991 L 685.38798,-74.634151 L 581.0838,-146.09197 L 574.33247,-142.2991"
         style="fill:#211d1e;fill-rule:nonzero;stroke:none;stroke-width:0.30000001;stroke-linecap:butt;stroke-linejoin:miter;stroke-miterlimit:10;stroke-dasharray:none"
         id="path3265" />
      <path
         d="M 547.4789,-158.60847 L 555.5957,-153.67775 L 569.40175,-288.32493 C 569.47762,-288.78007 569.85689,-289.15934 570.38791,-289.08352 C 570.76718,-289.00765 571.07062,-288.7042 571.07062,-288.24906 L 571.9809,-145.7127 L 594.05545,-158.30508 L 572.89118,-288.93177 L 570.5396,-291.13165 L 568.11216,-288.85595 L 547.4789,-158.60847"
         style="fill:#211d1e;fill-rule:nonzero;stroke:none;stroke-width:0.30000001;stroke-linecap:butt;stroke-linejoin:miter;stroke-miterlimit:10;stroke-dasharray:none"
         id="path3267" />
      <path
         d="M 544.44461,-154.73973 L 553.01651,-149.73314 L 442.26448,-70.310271 C 441.80934,-70.158571 441.73347,-69.475861 442.03691,-69.172421 C 442.34031,-68.868981 442.79545,-68.868981 443.02302,-69.172421 L 567.96046,-138.7338 L 567.73289,-113.32152 L 443.02302,-66.972541 L 438.01643,-66.213961 L 441.35416,-71.144721 L 544.44461,-154.73973"
         style="fill:#211d1e;fill-rule:nonzero;stroke:none;stroke-width:0.30000001;stroke-linecap:butt;stroke-linejoin:miter;stroke-miterlimit:10;stroke-dasharray:none"
         id="path3269" />
      <path
         d="M 596.10363,-154.43633 L 587.37999,-149.50557 L 697.37348,-67.275981 C 697.67692,-67.124241 697.82862,-66.820841 697.67692,-66.517401 C 697.52518,-66.138091 696.84246,-65.986391 696.61489,-66.289831 L 572.05677,-138.65793 L 572.20847,-113.39739 L 696.08388,-64.317521 L 699.72505,-65.076111 L 698.81477,-68.262141 L 596.10363,-154.43633"
         style="fill:#211d1e;fill-rule:nonzero;stroke:none;stroke-width:0.30000001;stroke-linecap:butt;stroke-linejoin:miter;stroke-miterlimit:10;stroke-dasharray:none"
         id="path3271" />
      <path
         d="M 411.08703,-141.38882 C 411.08703,-229.15601 482.2414,-300.31043 570.00859,-300.31043 C 657.77583,-300.31043 728.9302,-229.15601 728.9302,-141.38882 C 728.9302,-53.621631 657.77583,17.532789 570.00859,17.532789 C 482.2414,17.532789 411.08703,-53.621631 411.08703,-141.38882 z M 423.14835,-141.38882 C 423.14835,-222.48055 488.91686,-288.24906 570.00859,-288.24906 C 651.10037,-288.24906 716.86888,-222.48055 716.86888,-141.38882 C 716.86888,-60.297081 651.10037,5.3955986 570.00859,5.3955986 C 488.91686,5.3955986 423.14835,-60.297081 423.14835,-141.38882 z "
         style="fill:none;stroke:#211d1e;stroke-width:3.22394681;stroke-linecap:butt;stroke-linejoin:miter;stroke-miterlimit:3.86400008;stroke-dasharray:none"
         id="path3273" />
      <path
         d="M 418.29345,-138.65793 C 416.85216,-226.65273 485.19986,-293.17983 570.31203,-293.17983 C 658.23097,-292.95226 724.83393,-215.50165 727.94409,-137.52008 C 727.94409,-51.952761 655.12081,17.532789 570.00859,17.532789 C 483.22755,16.925949 420.26576,-53.014741 418.29345,-138.65793 z M 423.14835,-138.96137 C 423.14835,-223.01156 486.11014,-289.08352 570.38791,-289.08352 C 653.07263,-284.9872 722.25474,-224.37699 723.31677,-139.41651 C 723.31677,-55.442191 655.04494,12.677899 570.84305,12.677899 C 483.6827,12.677899 415.71431,-60.448781 423.14835,-138.96137 z "
         style="fill:none;stroke:#211d1e;stroke-width:0.90270507;stroke-linecap:butt;stroke-linejoin:miter;stroke-miterlimit:3.86400008;stroke-dasharray:none"
         id="path3275" />
      <path
         d="M 257.93059,173.0408 L 259.44772,173.0408 L 284.25316,103.40355 L 285.31514,165.68263 L 285.31514,166.82048 C 285.31514,171.44781 283.1153,172.96497 275.68126,173.26837 L 275.68126,175.61995 C 282.88773,174.93724 285.39101,174.70966 289.18388,174.70966 C 292.90092,174.70966 295.48007,174.93724 302.61066,175.61995 L 302.61066,173.26837 C 294.56978,172.73736 293.12849,171.67538 293.05262,165.68263 L 291.76307,106.81715 L 291.76307,105.75512 C 291.76307,101.05197 293.58363,99.762379 301.32111,99.231409 L 301.32111,96.955659 C 297.3765,97.183229 295.63176,97.334969 293.12849,97.334969 C 290.32177,97.334969 288.34947,97.183229 282.96356,96.728089 L 260.58557,158.9313 L 238.58689,96.728089 C 234.64232,97.183229 232.36657,97.334969 228.5737,97.334969 C 225.99455,97.334969 224.17395,97.183229 220.22938,96.955659 L 220.22938,99.231409 C 228.04269,99.762379 229.86325,100.9761 229.86325,105.90687 C 229.86325,106.21031 229.86325,106.43788 229.86325,106.81715 L 226.90484,165.68263 C 226.52552,171.52368 225.1601,172.73736 217.27092,173.26837 L 217.27092,175.61995 C 223.49124,175.16481 225.84281,174.93724 228.80127,174.93724 C 231.68386,174.93724 233.95956,175.16481 240.25575,175.61995 L 240.25575,173.26837 C 232.2907,172.73736 230.62184,171.52368 230.62184,166.59291 C 230.62184,166.36534 230.62184,166.0619 230.62184,165.68263 L 233.4286,103.40355 L 257.93059,173.0408"
         style="fill:#211d1e;fill-rule:nonzero;stroke:none;stroke-width:0.119;stroke-linecap:butt;stroke-linejoin:miter;stroke-miterlimit:3.86400008;stroke-dasharray:none"
         id="path3277" />
      <path
         d="M 336.82245,172.81323 C 325.97481,172.81323 320.89235,164.16547 320.89235,145.80796 L 356.16611,145.80796 L 356.16611,144.8218 C 356.16611,128.20899 348.80794,118.72677 335.6846,118.72677 C 321.95437,118.72677 313.53418,129.87785 313.53418,148.15953 C 313.53418,166.36534 321.8785,176.4544 336.59488,176.4544 C 347.82179,176.4544 355.17996,169.3238 356.24198,157.11074 L 351.69053,157.11074 C 350.32511,167.42737 345.24264,172.81323 336.82245,172.81323 z M 321.11992,141.5599 C 322.71295,128.66413 327.71955,121.68523 335.53286,121.68523 C 343.72548,121.68523 348.27693,128.36069 349.03551,141.5599 L 321.11992,141.5599"
         style="fill:#211d1e;fill-rule:evenodd;stroke:none;stroke-width:0.119;stroke-linecap:butt;stroke-linejoin:miter;stroke-miterlimit:3.86400008;stroke-dasharray:none"
         id="path3279" />
      <path
         d="M 364.73805,122.36794 C 370.65492,122.59551 371.26176,123.05065 371.41351,127.98142 L 371.41351,167.65494 C 371.41351,172.35809 369.97221,173.26837 362.99331,173.64768 L 362.99331,175.61995 C 369.06193,175.01311 371.41351,174.93724 374.97881,174.93724 C 378.61998,174.93724 380.97155,175.01311 387.04017,175.61995 L 387.04017,173.64768 C 380.06127,173.26837 378.61998,172.35809 378.61998,167.65494 L 378.61998,144.13909 C 378.61998,131.62259 382.71629,123.27822 389.0883,123.27822 C 391.28818,123.27822 392.80535,124.56782 392.80535,126.23668 C 392.80535,126.46425 392.80535,126.69182 392.80535,126.91939 L 392.42603,128.13312 C 392.42603,128.43656 392.3502,128.66413 392.3502,129.0434 C 392.3502,131.24327 394.17077,132.98801 396.67409,132.98801 C 399.4808,132.98801 401.22554,130.78813 401.22554,127.52628 C 401.22554,122.36794 397.12923,118.72677 391.51575,118.72677 C 385.29543,118.72677 380.1371,122.82308 378.16483,129.49858 L 378.08896,128.20899 C 377.93726,124.56782 377.78552,123.50583 377.48212,119.78879 L 377.25451,118.04406 C 372.70306,119.33365 368.91019,120.16806 363.22088,120.69908 L 363.22088,122.36794 L 364.73805,122.36794"
         style="fill:#211d1e;fill-rule:nonzero;stroke:none;stroke-width:0.119;stroke-linecap:butt;stroke-linejoin:miter;stroke-miterlimit:3.86400008;stroke-dasharray:none"
         id="path3281" />
      <path
         d="M 445.0712,117.66479 L 442.18861,123.50583 C 438.69914,120.01636 435.74072,118.72677 430.9617,118.72677 C 417.68661,118.72677 408.65958,130.56056 408.65958,148.15953 C 408.65958,165.07575 417.45904,176.4544 430.73413,176.4544 C 440.74732,176.4544 447.11933,169.55137 448.4848,157.26244 L 443.7816,157.26244 C 442.26448,167.88251 438.31987,172.81323 431.03753,172.81323 C 421.70705,172.81323 417.0039,164.46891 417.0039,148.15953 C 417.0039,131.47084 422.38977,121.68523 431.41684,121.68523 C 438.16817,121.68523 442.64375,126.38842 444.76776,135.94647 L 447.11933,135.94647 L 447.11933,117.66479 L 445.0712,117.66479"
         style="fill:#211d1e;fill-rule:nonzero;stroke:none;stroke-width:0.119;stroke-linecap:butt;stroke-linejoin:miter;stroke-miterlimit:3.86400008;stroke-dasharray:none"
         id="path3283" />
      <path
         d="M 482.46897,172.81323 C 471.62133,172.81323 466.61474,164.16547 466.61474,145.80796 L 501.81268,145.80796 L 501.81268,144.8218 C 501.81268,128.20899 494.45446,118.72677 481.33112,118.72677 C 467.67676,118.72677 459.25657,129.87785 459.25657,148.15953 C 459.25657,166.36534 467.52502,176.4544 482.2414,176.4544 C 493.54418,176.4544 500.90235,169.3238 501.96438,157.11074 L 497.33705,157.11074 C 495.97163,167.42737 490.96504,172.81323 482.46897,172.81323 z M 466.84231,141.5599 C 468.35947,128.66413 473.36607,121.68523 481.25525,121.68523 C 489.44787,121.68523 493.99932,128.36069 494.68204,141.5599 L 466.84231,141.5599"
         style="fill:#211d1e;fill-rule:evenodd;stroke:none;stroke-width:0.119;stroke-linecap:butt;stroke-linejoin:miter;stroke-miterlimit:3.86400008;stroke-dasharray:none"
         id="path3285" />
      <path
         d="M 561.36087,171.90295 L 559.76784,171.75125 C 554.68537,171.67538 553.92679,170.46165 553.92679,163.7862 L 553.92679,96.272949 C 548.84437,97.562539 544.52048,98.396949 538.30017,99.003839 L 538.30017,100.59683 C 545.81004,100.74853 546.64449,101.27954 546.64449,106.89302 L 546.64449,129.49858 C 542.85162,122.06454 538.83114,118.95434 532.15568,118.95434 C 519.94262,118.95434 511.52242,130.7123 511.52242,147.78022 C 511.52242,164.62061 520.09432,176.22683 532.38325,176.22683 C 539.05871,176.22683 543.83777,172.96497 547.09963,166.0619 C 547.3272,170.23408 547.70647,172.43396 548.38923,176.22683 C 552.40967,174.93724 554.1544,174.55797 560.29885,173.72351 L 562.34698,173.49594 L 562.34698,171.90295 L 561.36087,171.90295 z M 533.2177,173.0408 C 524.4182,173.0408 519.33578,163.9379 519.33578,147.78022 C 519.33578,131.0157 523.96306,122.29211 532.83839,122.29211 C 541.86547,122.29211 546.72036,131.62259 546.72036,148.61467 C 546.72036,164.39304 541.9413,173.0408 533.2177,173.0408"
         style="fill:#211d1e;fill-rule:evenodd;stroke:none;stroke-width:0.119;stroke-linecap:butt;stroke-linejoin:miter;stroke-miterlimit:3.86400008;stroke-dasharray:none"
         id="path3287" />
      <path
         d="M 593.90375,172.81323 C 582.98024,172.81323 577.97365,164.16547 577.97365,145.80796 L 613.17158,145.80796 L 613.17158,144.8218 C 613.17158,128.20899 605.81337,118.72677 592.69003,118.72677 C 579.03567,118.72677 570.61548,129.87785 570.61548,148.15953 C 570.61548,166.36534 578.88397,176.4544 593.60031,176.4544 C 604.90309,176.4544 612.26126,169.3238 613.32328,157.11074 L 608.77183,157.11074 C 607.33054,167.42737 602.32394,172.81323 593.90375,172.81323 z M 578.20122,141.5599 C 579.71838,128.66413 584.72497,121.68523 592.61416,121.68523 C 600.80678,121.68523 605.35823,128.36069 606.04094,141.5599 L 578.20122,141.5599"
         style="fill:#211d1e;fill-rule:evenodd;stroke:none;stroke-width:0.119;stroke-linecap:butt;stroke-linejoin:miter;stroke-miterlimit:3.86400008;stroke-dasharray:none"
         id="path3289" />
      <path
         d="M 625.61222,176.4544 L 628.34306,171.75125 C 632.51525,174.78554 636.99083,176.22683 642.14916,176.22683 C 652.76923,176.22683 660.50672,169.3238 660.50672,159.68988 C 660.50672,152.71098 657.54826,149.14569 648.52118,145.58039 L 643.28702,143.45634 C 632.74282,139.20833 630.61881,137.38776 630.61881,132.3053 C 630.61881,126.46425 635.70128,121.9128 642.14916,121.9128 C 649.50733,121.9128 653.45194,126.46425 654.51393,135.8706 L 656.7138,135.8706 L 656.7138,118.1958 L 654.74154,118.1958 L 653.22437,122.36794 C 649.12806,120.01636 645.86616,118.95434 641.61815,118.95434 C 631.68084,118.95434 624.77776,125.40227 624.77776,134.50517 C 624.77776,141.48407 627.35695,144.59423 636.15642,148.2354 L 641.76989,150.58698 C 652.76923,155.13843 654.4381,156.65555 654.4381,161.81389 C 654.4381,168.11008 648.90049,173.0408 641.54232,173.0408 C 632.97039,173.0408 628.34306,168.26178 625.99149,157.49001 L 623.63991,157.49001 L 623.71578,176.4544 L 625.61222,176.4544"
         style="fill:#211d1e;fill-rule:nonzero;stroke:none;stroke-width:0.119;stroke-linecap:butt;stroke-linejoin:miter;stroke-miterlimit:3.86400008;stroke-dasharray:none"
         id="path3291" />
      <path
         d="M 665.74088,145.80796 L 695.40117,145.80796 L 695.40117,140.87719 L 665.74088,140.87719 L 665.74088,145.80796 z "
         style="fill:#211d1e;fill-rule:nonzero;stroke:none;stroke-width:0.119;stroke-linecap:butt;stroke-linejoin:miter;stroke-miterlimit:3.86400008;stroke-dasharray:none"
         id="path3293" />
      <path
         d="M 753.50807,116.14762 C 753.50807,110.30662 751.15649,105.07241 747.06018,101.65885 C 743.19144,98.472829 738.63999,97.183229 731.20595,97.183229 L 701.69736,97.183229 L 701.69736,99.534809 C 710.19342,100.29339 711.33127,101.20367 711.33127,107.19642 L 711.33127,165.30332 C 711.33127,171.44781 710.19342,172.20639 701.69736,173.0408 L 701.69736,175.31655 L 730.44737,175.31655 C 739.39857,175.31655 743.87415,174.10282 748.57735,170.68922 C 753.81151,166.74461 757.22511,159.84158 757.22511,152.93856 C 757.22511,146.71824 754.49422,140.95306 749.94277,137.46359 C 747.36362,135.49133 745.61889,134.80857 741.06744,133.74659 C 749.10832,130.40886 753.50807,124.34025 753.50807,116.14762 z M 719.14459,100.52096 L 730.0681,100.52096 C 740.38473,100.52096 745.01201,105.37585 745.01201,116.37519 C 745.01201,121.68523 743.64658,125.78154 740.83987,128.81583 C 738.03315,131.85016 734.84712,132.76044 727.86822,132.76044 L 719.14459,132.76044 L 719.14459,100.52096 z M 731.35765,136.09817 C 737.65384,136.09817 741.44671,137.23602 744.25347,140.04278 C 747.06018,142.8495 748.80492,147.85609 748.80492,153.3937 C 748.80492,165.07575 742.20529,171.97882 731.35765,171.97882 L 727.03377,171.97882 C 720.20661,171.97882 719.14459,171.22024 719.14459,165.53089 L 719.14459,136.09817 L 731.35765,136.09817"
         style="fill:#211d1e;fill-rule:evenodd;stroke:none;stroke-width:0.119;stroke-linecap:butt;stroke-linejoin:miter;stroke-miterlimit:3.86400008;stroke-dasharray:none"
         id="path3295" />
      <path
         d="M 792.11957,172.81323 C 781.1961,172.81323 776.1895,164.16547 776.1895,145.80796 L 811.3874,145.80796 L 811.3874,144.8218 C 811.3874,128.20899 804.02923,118.72677 790.90584,118.72677 C 777.25149,118.72677 768.83129,129.87785 768.83129,148.15953 C 768.83129,166.36534 777.09979,176.4544 791.892,176.4544 C 803.11891,176.4544 810.47712,169.3238 811.5391,157.11074 L 806.98765,157.11074 C 805.54635,167.42737 800.53976,172.81323 792.11957,172.81323 z M 776.41707,141.5599 C 777.9342,128.66413 783.01666,121.68523 790.83001,121.68523 C 799.0226,121.68523 803.57409,128.36069 804.2568,141.5599 L 776.41707,141.5599"
         style="fill:#211d1e;fill-rule:evenodd;stroke:none;stroke-width:0.119;stroke-linecap:butt;stroke-linejoin:miter;stroke-miterlimit:3.86400008;stroke-dasharray:none"
         id="path3297" />
      <path
         d="M 821.85573,122.82308 C 825.80034,122.97482 826.71062,123.20239 827.54508,123.8851 C 828.15192,124.34025 828.37949,125.40227 828.45536,128.13312 L 828.45536,167.65494 C 828.45536,172.35809 827.08993,173.26837 820.03516,173.64768 L 820.03516,175.61995 C 826.10378,175.01311 828.45536,174.93724 832.09653,174.93724 C 835.7377,174.93724 838.08927,175.01311 844.15785,175.61995 L 844.15785,173.64768 C 837.17899,173.26837 835.7377,172.35809 835.7377,167.65494 L 835.7377,139.81521 C 835.7377,129.49858 840.44085,124.0368 848.93692,124.0368 C 856.90193,124.0368 860.08795,128.36069 860.08795,139.20833 L 860.08795,167.65494 C 860.08795,172.35809 858.64666,173.42011 851.51606,173.64768 L 851.51606,175.61995 C 857.50881,175.01311 859.86038,174.93724 863.57743,174.93724 C 867.3703,174.93724 869.646,175.01311 875.79049,175.61995 L 875.79049,173.64768 C 868.73572,173.26837 867.3703,172.35809 867.3703,167.65494 L 867.3703,139.13246 C 867.3703,134.65687 866.91515,131.24327 865.70143,128.43656 C 863.34986,122.82308 857.28124,118.95434 850.45404,118.95434 C 844.08202,118.95434 839.22713,121.9128 835.13082,127.98142 L 835.13082,126.46425 C 834.90325,121.9128 834.82737,120.4715 834.37223,117.66479 C 829.74495,119.48535 826.10378,120.24393 820.26274,121.23009 L 820.26274,122.82308 L 821.85573,122.82308"
         style="fill:#211d1e;fill-rule:evenodd;stroke:none;stroke-width:0.119;stroke-linecap:butt;stroke-linejoin:miter;stroke-miterlimit:3.86400008;stroke-dasharray:none"
         id="path3299" />
      <path
         d="M 922.06359,175.31655 L 924.87029,159.38644 L 922.89799,159.38644 C 919.63619,169.6272 916.29839,172.58566 908.71269,172.58566 L 892.93429,172.58566 L 925.93229,120.01636 L 888.23109,120.01636 L 885.80369,134.4293 L 887.77599,134.4293 L 888.61039,132.457 C 891.72059,124.49195 893.99629,122.74725 900.74759,122.74725 L 915.84329,122.74725 L 882.99696,175.31655 L 922.06359,175.31655"
         style="fill:#211d1e;fill-rule:evenodd;stroke:none;stroke-width:0.119;stroke-linecap:butt;stroke-linejoin:miter;stroke-miterlimit:3.86400008;stroke-dasharray:none"
         id="path3301" />
    </g>
  </g>
</svg>
